
<?xml version="1.0" encoding="UTF-8"?>
<svg id="Layer_2" data-name="Layer 2" xmlns="http://www.w3.org/2000/svg" xmlns:xlink="http://www.w3.org/1999/xlink" viewBox="0 0 957.75 134.83">
  <defs>
    <style>
      .cls-1 {
        fill: url(#linear-gradient-2);
      }

      .cls-2 {
        fill: url(#linear-gradient-5);
      }

      .cls-3 {
        fill: url(#linear-gradient-3);
      }

      .cls-4 {
        fill: url(#linear-gradient);
      }

      .cls-5 {
        fill: url(#linear-gradient-4);
      }

      .cls-6 {
        fill: #051c3a;
      }
    </style>
    <linearGradient id="linear-gradient" x1="0" y1="66.15" x2="148.57" y2="66.15" gradientUnits="userSpaceOnUse">
      <stop offset="0" stop-color="#3becb9"/>
      <stop offset="1" stop-color="#00c3ff"/>
    </linearGradient>
    <linearGradient id="linear-gradient-2" x1="198.12" y1=".14" x2="198.12" y2="28.55" xlink:href="#linear-gradient"/>
    <linearGradient id="linear-gradient-3" x1="670.56" y1="14.34" x2="699.69" y2="14.34" xlink:href="#linear-gradient"/>
    <linearGradient id="linear-gradient-4" x1="790.15" y1="107.04" x2="853.56" y2="107.04" xlink:href="#linear-gradient"/>
    <linearGradient id="linear-gradient-5" x1="603.31" y1="22.3" x2="643.77" y2="22.3" xlink:href="#linear-gradient"/>
  </defs>
  <g id="Layer_1-2" data-name="Layer 1">
    <g>
      <path class="cls-4" d="m52.11,41.98c17.96,30.11,35.77,59.97,53.83,90.27h-3.91c-6.49,0-12.98-.12-19.46.05-2.75.07-4.42-.85-5.81-3.25-9.04-15.61-18.21-31.14-27.34-46.7-3.09-5.26-6.22-10.5-9.25-15.81-.44-.78-.85-2.08-.5-2.72,3.97-7.18,8.09-14.28,12.43-21.85Zm67.79,16.33c.66,1.11,2.39,2.2,3.65,2.23,7.32.17,14.64.04,21.96-.03.89,0,1.78-.29,2.82-.47-2.03-3.44-3.83-6.45-5.6-9.47-9.61-16.34-19.19-32.7-28.9-48.99-.5-.85-2.04-1.51-3.11-1.53-7.78-.11-15.57-.04-23.35-.01-.5,0-1,.15-1.8.29,1.11,1.73,2.1,3.15,2.98,4.64,10.43,17.79,20.82,35.6,31.35,53.33Zm2.1,14.12c-.61,0-1.43.76-1.8,1.38-4.55,7.73-8.84,15.62-13.61,23.21-2.33,3.7-2.81,6.65-.28,10.54,4.11,6.32,7.62,13.03,11.67,20.08,10.21-18.46,20.23-36.57,30.57-55.27-9.19,0-17.88-.03-26.56.06Zm-13.12-3.95c.35-.64-.05-1.95-.5-2.72-3.02-5.3-6.16-10.54-9.25-15.81-9.13-15.56-18.29-31.09-27.34-46.7C70.42.86,68.75-.07,66,0c-6.48.16-12.98.05-19.46.05h-3.91c18.07,30.3,35.88,60.16,53.83,90.27,4.33-7.56,8.45-14.66,12.43-21.84Zm-80.22,5.51c-.66-1.11-2.39-2.2-3.65-2.23-7.32-.17-14.64-.04-21.96.03-.89,0-1.78.29-2.82.47,2.03,3.44,3.83,6.45,5.6,9.47,9.61,16.34,19.19,32.7,28.9,48.99.5.85,2.04,1.51,3.11,1.53,7.78.11,15.57.04,23.35.01.5,0,1-.15,1.8-.29-1.11-1.73-2.1-3.15-2.98-4.64-10.43-17.79-20.82-35.6-31.35-53.33Zm-2.1-14.12c.61,0,1.43-.76,1.8-1.38,4.55-7.73,8.84-15.62,13.61-23.21,2.33-3.7,2.81-6.65.28-10.54-4.11-6.32-7.62-13.03-11.67-20.08C20.36,23.13,10.34,41.23,0,59.93c9.19,0,17.88.03,26.56-.06Z"/>
      <path class="cls-1" d="m212.64,14.49c1.02-19.2-29.78-19.05-29.07,0-.87,19.19,30.54,18.3,29.07,0Z"/>
      <rect class="cls-6" x="186.51" y="40.98" width="23.47" height="91.17"/>
      <path class="cls-3" d="m699.64,14.49c1.02-19.2-29.78-19.05-29.07,0-.87,19.19,30.54,18.3,29.07,0Z"/>
      <rect class="cls-6" x="673.51" y="40.98" width="23.47" height="91.17"/>
      <path class="cls-6" d="m248.91,38.01c0-13.33-.27-24.27-1.07-34.94h20.8l1.33,21.34h.53C276.91,12.15,291.84.14,313.18.14c17.87,0,45.61,10.67,45.61,54.94v77.08h-23.47V57.75c0-20.8-7.73-38.14-29.87-38.14-15.47,0-27.47,10.93-31.47,24-1.07,2.93-1.6,6.93-1.6,10.93v77.61h-23.47V38.01Z"/>
      <path class="cls-6" d="m790.51.13c-37.94,0-67.97,25.29-67.97,68.42,0,40.73,28.61,66.26,65.71,66.26,1.03,0,2.08-.03,3.11-.05,17.05-.68,34.33-6.85,46.77-19.39,11.09-11.12,18.39-27.24,18.39-48.95C856.51,27.03,829.9.13,790.51.13Zm-.71,117.14h-.42c-24.34,0-41.63-21.31-41.63-49.51,0-24.5,12.75-50.06,42.21-50.06s41.07,27.69,41.07,49.51c0,23.92-12.12,42.39-29.69,48.16-3.64,1.21-7.48,1.84-11.54,1.9Z"/>
      <path class="cls-6" d="m451.26.13c-37.94,0-67.97,25.29-67.97,68.42,0,40.73,28.61,66.26,65.71,66.26,1.03,0,2.08-.03,3.11-.05,17.05-.68,34.33-6.85,46.77-19.39,11.09-11.12,18.39-27.24,18.39-48.95C517.26,27.03,490.65.13,451.26.13Zm-.71,117.14h-.42c-24.34,0-41.63-21.31-41.63-49.51,0-24.5,12.75-50.06,42.21-50.06s41.07,27.69,41.07,49.51c0,23.92-12.12,42.39-29.69,48.16-3.64,1.21-7.48,1.84-11.54,1.9Z"/>
      <path class="cls-6" d="m879.07,108.16c6.93,4.53,19.2,9.33,30.94,9.33,17.07,0,25.07-8.53,25.07-19.2,0-11.2-6.67-17.34-24-23.74-23.2-8.27-34.14-21.07-34.14-36.54,0-20.8,16.8-37.87,44.54-37.87,13.07,0,24.54,3.73,31.74,8l-5.87,17.07c-5.07-3.2-14.4-7.47-26.4-7.47-13.87,0-21.6,8-21.6,17.6,0,10.67,7.73,15.47,24.54,21.87,22.4,8.53,33.87,19.73,33.87,38.94,0,22.67-17.6,38.67-48.27,38.67-14.14,0-27.2-3.47-36.27-8.8l5.87-17.87Z"/>
      <path class="cls-6" d="m598,75.62c-4.27,11.73-8,22.4-10.93,33.07h-.8c-2.67-10.67-6.13-21.33-10.4-33.07l-25.34-72.54h-25.07l49.07,129.08h22.4l37.99-96.77-20.45-7.44-16.48,47.68Z"/>
      <path class="cls-5" d="m853.56,134.57l-48.91-55.09-14.5,12.87,37.5,42.23h25.89s.01-.01.02-.02Z"/>
      <polygon class="cls-2" points="636.31 1.09 603.31 28.76 643.77 43.51 636.31 1.09"/>
    </g>
  </g>
</svg>